<svg width="24" height="23" viewBox="0 0 24 23" fill="none" xmlns="http://www.w3.org/2000/svg">
<path opacity="0.1" fill-rule="evenodd" clip-rule="evenodd" d="M0.851471 11.7743C0.851471 5.62346 5.83773 0.637207 11.9886 0.637207C18.1394 0.637207 23.1257 5.62346 23.1257 11.7743C23.1257 17.9252 18.1394 22.9114 11.9886 22.9114C5.83773 22.9114 0.851471 17.9252 0.851471 11.7743Z" fill="white"/>
<path fill-rule="evenodd" clip-rule="evenodd" d="M11.9891 5.83447C10.376 5.83447 10.1735 5.84153 9.53995 5.87036C8.9076 5.89932 8.47597 5.99943 8.0983 6.14632C7.70763 6.29803 7.37623 6.50097 7.04607 6.83125C6.71567 7.16141 6.51273 7.49281 6.36052 7.88335C6.21326 8.26115 6.11302 8.6929 6.08456 9.325C6.05622 9.95859 6.0488 10.1612 6.0488 11.7743C6.0488 13.3875 6.05597 13.5893 6.08468 14.2229C6.11376 14.8553 6.21388 15.2869 6.36064 15.6646C6.51248 16.0552 6.71542 16.3866 7.0457 16.7168C7.37574 17.0472 7.70713 17.2506 8.09755 17.4023C8.47548 17.5492 8.90723 17.6493 9.53945 17.6783C10.173 17.7071 10.3754 17.7142 11.9884 17.7142C13.6017 17.7142 13.8035 17.7071 14.4371 17.6783C15.0695 17.6493 15.5016 17.5492 15.8795 17.4023C16.2701 17.2506 16.6009 17.0472 16.931 16.7168C17.2614 16.3866 17.4643 16.0552 17.6165 15.6647C17.7626 15.2869 17.8628 14.8551 17.8925 14.223C17.921 13.5894 17.9284 13.3875 17.9284 11.7743C17.9284 10.1612 17.921 9.95871 17.8925 9.32513C17.8628 8.69278 17.7626 8.26115 17.6165 7.88348C17.4643 7.49281 17.2614 7.16141 16.931 6.83125C16.6006 6.50085 16.2702 6.29791 15.8791 6.14632C15.5005 5.99943 15.0686 5.89932 14.4362 5.87036C13.8027 5.84153 13.601 5.83447 11.9873 5.83447H11.9891ZM11.4563 6.90487C11.6144 6.90462 11.7909 6.90487 11.9891 6.90487C13.5751 6.90487 13.763 6.91056 14.3893 6.93902C14.9685 6.9655 15.2828 7.06227 15.4922 7.14358C15.7693 7.25124 15.967 7.37993 16.1747 7.58783C16.3826 7.79572 16.5113 7.99372 16.6192 8.27091C16.7005 8.48004 16.7974 8.79436 16.8238 9.3735C16.8523 9.99966 16.8584 10.1878 16.8584 11.773C16.8584 13.3581 16.8523 13.5462 16.8238 14.1724C16.7973 14.7515 16.7005 15.0659 16.6192 15.275C16.5116 15.5522 16.3826 15.7496 16.1747 15.9573C15.9668 16.1652 15.7695 16.2939 15.4922 16.4016C15.283 16.4833 14.9685 16.5798 14.3893 16.6063C13.7632 16.6347 13.5751 16.6409 11.9891 16.6409C10.4031 16.6409 10.2151 16.6347 9.58893 16.6063C9.00979 16.5795 8.69547 16.4828 8.48597 16.4015C8.20878 16.2938 8.01078 16.1651 7.80289 15.9572C7.59499 15.7493 7.46629 15.5518 7.35839 15.2745C7.27708 15.0654 7.18019 14.751 7.15383 14.1719C7.12537 13.5457 7.11968 13.3577 7.11968 11.7715C7.11968 10.1853 7.12537 9.99817 7.15383 9.37201C7.18031 8.79287 7.27708 8.47856 7.35839 8.26918C7.46605 7.99198 7.59499 7.79399 7.80289 7.58609C8.01078 7.3782 8.20878 7.2495 8.48597 7.1416C8.69535 7.05992 9.00979 6.9634 9.58893 6.93679C10.1369 6.91204 10.3492 6.90462 11.4563 6.90338V6.90487ZM15.1598 7.89113C14.7663 7.89113 14.447 8.21003 14.447 8.60367C14.447 8.99718 14.7663 9.31645 15.1598 9.31645C15.5533 9.31645 15.8726 8.99718 15.8726 8.60367C15.8726 8.21015 15.5533 7.89113 15.1598 7.89113ZM11.9892 8.72395C10.3046 8.72395 8.93879 10.0897 8.93879 11.7743C8.93879 13.4589 10.3046 14.8241 11.9892 14.8241C13.6737 14.8241 15.039 13.4589 15.039 11.7743C15.039 10.0897 13.6737 8.72395 11.9892 8.72395ZM11.9891 9.79436C13.0826 9.79436 13.9691 10.6808 13.9691 11.7743C13.9691 12.8677 13.0826 13.7543 11.9891 13.7543C10.8956 13.7543 10.0092 12.8677 10.0092 11.7743C10.0092 10.6808 10.8956 9.79436 11.9891 9.79436Z" fill="white"/>
</svg>
